<!DOCTYPE svg [<!ENTITY nbsp "&#160;">]><svg version="1.1" id="mscgenjs__svg" class="mscgenjs__svg" xmlns="http://www.w3.org/2000/svg" xmlns:xlink="http://www.w3.org/1999/xlink" width="816" height="315.2992172241211" viewBox="0 0 816 315.2992172241211"><desc>

# Generated by mscgen_js - https://sverweij.github.io/mscgen_js
msc{
	main, discordgo, handler, worker, command;
    
    main =&gt; discordgo [label="session.AddHandler()"];
    main =&gt; discordgo [label="session.Open()"];
    discordgo =&gt; discordgo [label="listens for events"];
    discordgo =&gt; handler [label="calls handler on event"];
    handler =&gt; worker [label="puts job on work queue"];
    worker =&gt; command [label="calls command from dispatch table"];
}</desc><defs><style type="text/css">svg.mscgenjs__svg{font-family:Helvetica,sans-serif;font-size:12px;font-weight:normal;font-style:normal;text-decoration:none;background-color:white;stroke:black;stroke-width:2}.mscgenjs__svg path, .mscgenjs__svg rect{fill:none}.mscgenjs__svg .label-text-background{fill:white;stroke:white;stroke-width:0}.mscgenjs__svg .bglayer{fill:white;stroke:white;stroke-width:0}.mscgenjs__svg line{}.mscgenjs__svg .return, .mscgenjs__svg .comment{stroke-dasharray:5,3}.mscgenjs__svg .inline_expression_divider{stroke-dasharray:10,5}.mscgenjs__svg text{color:inherit;stroke:none;text-anchor:middle}.mscgenjs__svg text.anchor-start{text-anchor:start}.mscgenjs__svg .arrow-marker{overflow:visible}.mscgenjs__svg .arrow-style{stroke-width:1}.mscgenjs__svg .arcrow, .mscgenjs__svg .arcrowomit, .mscgenjs__svg .emphasised{stroke-linecap:butt}.mscgenjs__svg .arcrowomit{stroke-dasharray:2,2}.mscgenjs__svg .box, .mscgenjs__svg .entity{fill:white;stroke-linejoin:round}.mscgenjs__svg .inherit{stroke:inherit;color:inherit}.mscgenjs__svg .inherit-fill{fill:inherit}.mscgenjs__svg .watermark{font-size:48pt;font-weight:bold;opacity:0.14}</style><marker orient="auto" id="mscgenjs__svgmethod-black" class="arrow-marker" viewBox="0 0 10 10" refX="9" refY="3" markerUnits="strokeWidth" markerWidth="10" markerHeight="10"><polygon points="1,1  9,3  1,5" class="arrow-style" stroke="black" fill="black"></polygon></marker><marker orient="auto" id="mscgenjs__svgmethod-l-black" class="arrow-marker" viewBox="0 0 10 10" refX="9" refY="3" markerUnits="strokeWidth" markerWidth="10" markerHeight="10"><polygon points="17,1 9,3 17,5" class="arrow-style" stroke="black" fill="black"></polygon></marker></defs><g id="mscgenjs__svg_body" transform="translate(38,3) scale(1,1)"><g id="mscgenjs__svg_background"><rect width="816" height="315.3" x="-38" y="-3" class="bglayer"></rect></g><g id="mscgenjs__svg_arcspans"></g><g id="mscgenjs__svg_lifelines"><line x1="50" y1="38" x2="50" y2="76" class="arcrow"></line><line x1="210" y1="38" x2="210" y2="76" class="arcrow"></line><line x1="370" y1="38" x2="370" y2="76" class="arcrow"></line><line x1="530" y1="38" x2="530" y2="76" class="arcrow"></line><line x1="690" y1="38" x2="690" y2="76" class="arcrow"></line><line x1="50" y1="76" x2="50" y2="114" class="arcrow"></line><line x1="210" y1="76" x2="210" y2="114" class="arcrow"></line><line x1="370" y1="76" x2="370" y2="114" class="arcrow"></line><line x1="530" y1="76" x2="530" y2="114" class="arcrow"></line><line x1="690" y1="76" x2="690" y2="114" class="arcrow"></line><line x1="50" y1="114" x2="50" y2="152" class="arcrow"></line><line x1="210" y1="114" x2="210" y2="152" class="arcrow"></line><line x1="370" y1="114" x2="370" y2="152" class="arcrow"></line><line x1="530" y1="114" x2="530" y2="152" class="arcrow"></line><line x1="690" y1="114" x2="690" y2="152" class="arcrow"></line><line x1="50" y1="152" x2="50" y2="195.3" class="arcrow"></line><line x1="210" y1="152" x2="210" y2="195.3" class="arcrow"></line><line x1="370" y1="152" x2="370" y2="195.3" class="arcrow"></line><line x1="530" y1="152" x2="530" y2="195.3" class="arcrow"></line><line x1="690" y1="152" x2="690" y2="195.3" class="arcrow"></line><line x1="50" y1="195.3" x2="50" y2="233.3" class="arcrow"></line><line x1="210" y1="195.3" x2="210" y2="233.3" class="arcrow"></line><line x1="370" y1="195.3" x2="370" y2="233.3" class="arcrow"></line><line x1="530" y1="195.3" x2="530" y2="233.3" class="arcrow"></line><line x1="690" y1="195.3" x2="690" y2="233.3" class="arcrow"></line><line x1="50" y1="233.3" x2="50" y2="271.3" class="arcrow"></line><line x1="210" y1="233.3" x2="210" y2="271.3" class="arcrow"></line><line x1="370" y1="233.3" x2="370" y2="271.3" class="arcrow"></line><line x1="530" y1="233.3" x2="530" y2="271.3" class="arcrow"></line><line x1="690" y1="233.3" x2="690" y2="271.3" class="arcrow"></line><line x1="50" y1="271.3" x2="50" y2="309.3" class="arcrow"></line><line x1="210" y1="271.3" x2="210" y2="309.3" class="arcrow"></line><line x1="370" y1="271.3" x2="370" y2="309.3" class="arcrow"></line><line x1="530" y1="271.3" x2="530" y2="309.3" class="arcrow"></line><line x1="690" y1="271.3" x2="690" y2="309.3" class="arcrow"></line></g><g id="mscgenjs__svg_sequence"><g><g><rect width="100" height="38" class="entity"></rect><g><text x="50" y="23" class="entity-text "><tspan>main</tspan></text></g></g><g><rect width="100" height="38" x="160" class="entity"></rect><g><text x="210" y="23" class="entity-text "><tspan>discordgo</tspan></text></g></g><g><rect width="100" height="38" x="320" class="entity"></rect><g><text x="370" y="23" class="entity-text "><tspan>handler</tspan></text></g></g><g><rect width="100" height="38" x="480" class="entity"></rect><g><text x="530" y="23" class="entity-text "><tspan>worker</tspan></text></g></g><g><rect width="100" height="38" x="640" class="entity"></rect><g><text x="690" y="23" class="entity-text "><tspan>command</tspan></text></g></g></g><g><line x1="50" y1="95" x2="210" y2="95" class="arc directional method" style="stroke:black" marker-end="url(#mscgenjs__svgmethod-black)"></line><g><rect width="124" height="14" x="68.5" y="79" class="label-text-background"></rect><text x="130" y="90" class="directional-text method-text "><tspan>session.AddHandler()</tspan></text></g></g><g><line x1="50" y1="133" x2="210" y2="133" class="arc directional method" style="stroke:black" marker-end="url(#mscgenjs__svgmethod-black)"></line><g><rect width="89" height="14" x="86" y="117" class="label-text-background"></rect><text x="130" y="128" class="directional-text method-text "><tspan>session.Open()</tspan></text></g></g><g><path d="M210,166.05 C290,166.15 290,188.85 210,188.85 " class="arc directional method" style="stroke:black" marker-end="url(#mscgenjs__svgmethod-black)"></path><g><rect width="96" height="14" x="212" y="149.55" class="label-text-background"></rect><text x="213" y="160.55" class="directional-text method-text anchor-start "><tspan>listens for events</tspan></text></g></g><g><line x1="210" y1="214.3" x2="370" y2="214.3" class="arc directional method" style="stroke:black" marker-end="url(#mscgenjs__svgmethod-black)"></line><g><rect width="123" height="14" x="229" y="198.3" class="label-text-background"></rect><text x="290" y="209.3" class="directional-text method-text "><tspan>calls handler on event</tspan></text></g></g><g><line x1="370" y1="252.3" x2="530" y2="252.3" class="arc directional method" style="stroke:black" marker-end="url(#mscgenjs__svgmethod-black)"></line><g><rect width="131" height="14" x="385" y="236.3" class="label-text-background"></rect><text x="450" y="247.3" class="directional-text method-text "><tspan>puts job on work queue</tspan></text></g></g><g><line x1="530" y1="290.3" x2="690" y2="290.3" class="arc directional method" style="stroke:black" marker-end="url(#mscgenjs__svgmethod-black)"></line><g><rect width="196" height="14" x="512.5" y="274.3" class="label-text-background"></rect><text x="610" y="285.3" class="directional-text method-text "><tspan>calls command from dispatch table</tspan></text></g></g></g><g id="mscgenjs__svg_notes"></g><g id="mscgenjs__svg_watermark"></g></g></svg>